<?xml version="1.0" encoding="UTF-8"?>
<svg id="Livello_1" data-name="Livello 1" xmlns="http://www.w3.org/2000/svg" viewBox="0 0 150.26 15.74">
  <g>
    <path d="M9.02,11.17c-.09.66-.29,1.22-.59,1.68-.3.45-.69.79-1.16,1.01-.47.23-1.03.34-1.65.34-.79,0-1.48-.19-2.05-.55-.57-.37-1.01-.9-1.31-1.58-.31-.69-.46-1.51-.46-2.45s.16-1.75.46-2.43c.3-.67.75-1.19,1.31-1.55.57-.36,1.26-.54,2.04-.54.54,0,1.04.09,1.48.26.44.17.81.43,1.11.77s.51.75.64,1.23l.02.09h1.78l-.03-.15c-.13-.76-.43-1.43-.91-2-.47-.57-1.08-1.01-1.8-1.32s-1.51-.46-2.36-.46c-1.1,0-2.08.26-2.92.77-.83.51-1.49,1.23-1.94,2.15-.45.91-.68,1.97-.68,3.15s.23,2.24.67,3.16c.45.93,1.1,1.66,1.93,2.18.84.52,1.83.79,2.95.79.94,0,1.78-.18,2.51-.55.73-.36,1.33-.9,1.79-1.58.45-.68.75-1.5.88-2.43l.02-.14h-1.73v.15Z"/>
    <polygon points="26.65 10.24 32.76 10.24 32.76 8.68 26.65 8.68 26.65 5.32 33.27 5.32 33.27 3.77 24.9 3.77 24.9 15.49 33.42 15.49 33.42 13.93 26.65 13.93 26.65 10.24"/>
    <polygon points="50.82 3.77 49.08 3.77 49.08 15.49 56.8 15.49 56.8 13.93 50.82 13.93 50.82 3.77"/>
    <polygon points="73.11 10.24 79.22 10.24 79.22 8.68 73.11 8.68 73.11 5.32 79.73 5.32 79.73 3.77 71.37 3.77 71.37 15.49 79.88 15.49 79.88 13.93 73.11 13.93 73.11 10.24"/>
    <path d="M102.2,9.49c-.5-.29-1.12-.51-1.85-.66l-1.69-.35c-.58-.12-1.04-.27-1.37-.42-.31-.15-.54-.33-.66-.53-.13-.2-.19-.44-.19-.73,0-.37.1-.69.29-.95.19-.26.47-.47.84-.61s.83-.22,1.36-.22c.56,0,1.05.08,1.45.25.39.16.7.4.93.71.22.31.35.7.4,1.15v.12h1.69v-.14c-.07-.75-.29-1.4-.65-1.93-.37-.53-.88-.94-1.52-1.22-.63-.27-1.39-.41-2.24-.41s-1.64.14-2.26.42c-.63.28-1.12.68-1.44,1.19-.33.51-.49,1.1-.49,1.78,0,.6.14,1.12.42,1.54.28.41.67.74,1.16.99.48.24,1.06.43,1.74.57l1.61.34c.59.12,1.05.28,1.39.45.33.17.57.37.72.61.14.23.22.52.22.87,0,.41-.1.76-.3,1.05-.2.29-.51.52-.92.68-.42.16-.95.24-1.58.24s-1.21-.09-1.66-.28c-.44-.18-.8-.46-1.05-.84s-.41-.88-.46-1.49v-.12h-1.69v.13c.07.89.3,1.65.69,2.25.39.6.94,1.06,1.63,1.36s1.53.45,2.5.45c1.03,0,1.89-.16,2.57-.47s1.19-.74,1.51-1.27.48-1.13.48-1.79c0-.61-.13-1.15-.39-1.6-.3-.45-.68-.82-1.19-1.12Z"/>
    <polygon points="117.76 5.32 121.59 5.32 121.59 15.49 123.34 15.49 123.34 5.32 127.18 5.32 127.18 3.77 117.76 3.77 117.76 5.32"/>
    <polygon points="143.49 13.93 143.49 10.24 149.59 10.24 149.59 8.68 143.49 8.68 143.49 5.32 150.11 5.32 150.11 3.77 141.74 3.77 141.74 15.49 150.26 15.49 150.26 13.93 143.49 13.93"/>
  </g>
  <polygon points="31.11 0 29.51 0 27.8 2.88 29.41 2.88 31.11 0"/>
</svg>