<?xml version="1.0" encoding="UTF-8"?>
<svg xmlns="http://www.w3.org/2000/svg" viewBox="0 0 32 32">
  <rect width="32" height="32" fill="#ffffff"/>
  <g transform="translate(16 16) scale(1.75) translate(-5.4 -9.6)">
    <path fill="#1a1a1a" d="M9.02,11.17c-.09.66-.29,1.22-.59,1.68-.3.45-.69.79-1.16,1.01-.47.23-1.03.34-1.65.34-.79,0-1.48-.19-2.05-.55-.57-.37-1.01-.9-1.31-1.58-.31-.69-.46-1.51-.46-2.45s.16-1.75.46-2.43c.3-.67.75-1.19,1.31-1.55.57-.36,1.26-.54,2.04-.54.54,0,1.04.09,1.48.26.44.17.81.43,1.11.77s.51.75.64,1.23l.02.09h1.78l-.03-.15c-.13-.76-.43-1.43-.91-2-.47-.57-1.08-1.01-1.8-1.32s-1.51-.46-2.36-.46c-1.1,0-2.08.26-2.92.77-.83.51-1.49,1.23-1.94,2.15-.45.91-.68,1.97-.68,3.15s.23,2.24.67,3.16c.45.93,1.1,1.66,1.93,2.18.84.52,1.83.79,2.95.79.94,0,1.78-.18,2.51-.55.73-.36,1.33-.9,1.79-1.58.45-.68.75-1.5.88-2.43l.02-.14h-1.73v.15Z"/>
  </g>
</svg>
