<?xml version="1.0" encoding="UTF-8"?>
<svg id="Livello_1" data-name="Livello 1" xmlns="http://www.w3.org/2000/svg" viewBox="0 0 85.07 38.28">
  <path d="M2.01,6.15c-.41,0-.76-.09-1.06-.26s-.53-.43-.7-.77c-.16-.34-.25-.75-.25-1.23s.08-.9.25-1.25.4-.62.71-.8.67-.28,1.09-.28c.33,0,.63.06.88.18.26.12.47.29.63.52.16.23.27.51.32.84h-.72c-.04-.2-.11-.36-.2-.5-.1-.13-.22-.23-.37-.3s-.32-.1-.53-.1c-.29,0-.53.06-.72.19s-.33.32-.43.56c-.09.24-.14.54-.14.89s.05.64.15.89.24.43.43.56.42.19.69.19c.21,0,.39-.04.54-.12s.27-.19.37-.33c.09-.15.16-.32.2-.53h.72c-.05.34-.15.64-.31.88s-.37.43-.63.56c-.25.14-.56.21-.92.21Z"/>
  <path d="M8.29,6.14c-.42,0-.79-.1-1.1-.29s-.55-.47-.71-.81c-.16-.35-.25-.75-.25-1.2s.08-.84.24-1.18c.16-.34.4-.61.7-.8.31-.19.67-.29,1.09-.29s.76.09,1.05.26c.3.18.53.43.69.76s.24.72.24,1.17v.28h-3.38v-.56h3l-.32.37c0-.35-.05-.65-.15-.9s-.24-.43-.43-.56-.42-.19-.69-.19c-.25,0-.48.06-.67.17s-.34.28-.45.51c-.11.22-.16.5-.16.82v.26c0,.34.05.62.16.85.11.23.26.4.45.52.2.11.43.17.7.17.2,0,.37-.03.53-.09.15-.06.28-.15.39-.27.11-.12.19-.26.26-.44l.71.08c-.09.29-.23.53-.41.73s-.4.36-.65.46c-.26.12-.54.17-.84.17Z"/>
  <path d="M12.89,6.04V.01h.77v6.03h-.77Z"/>
  <path d="M18.37,6.14c-.42,0-.79-.1-1.1-.29s-.55-.47-.71-.81c-.16-.35-.25-.75-.25-1.2s.08-.84.24-1.18c.16-.34.4-.61.7-.8.31-.19.67-.29,1.09-.29s.76.09,1.05.26c.3.18.53.43.69.76s.24.72.24,1.17v.28h-3.38v-.56h3l-.32.37c0-.35-.05-.65-.15-.9s-.24-.43-.43-.56-.42-.19-.69-.19c-.25,0-.48.06-.67.17s-.34.28-.45.51c-.11.22-.16.5-.16.82v.26c0,.34.05.62.16.85.11.23.26.4.45.52.2.11.43.17.7.17.2,0,.37-.03.53-.09.15-.06.28-.15.39-.27.11-.12.19-.26.26-.44l.71.08c-.09.29-.23.53-.41.73s-.4.36-.65.46c-.25.12-.53.17-.84.17Z"/>
  <path d="M24.44,6.15c-.36,0-.67-.05-.93-.16-.26-.11-.46-.27-.6-.48-.15-.22-.24-.49-.27-.81l.73-.03c.03.2.08.37.17.49.09.13.21.22.36.28.15.06.34.09.57.09s.42-.03.58-.08c.16-.06.27-.13.35-.24.08-.1.11-.22.11-.37,0-.13-.03-.24-.1-.33-.06-.09-.17-.16-.31-.22-.14-.06-.34-.11-.59-.16l-.44-.08c-.29-.06-.54-.14-.73-.24-.2-.1-.35-.23-.45-.4-.1-.16-.15-.36-.15-.59,0-.26.06-.48.18-.67s.3-.34.55-.44c.24-.1.54-.15.88-.15s.61.05.86.15c.25.1.45.25.6.44s.25.45.29.75l-.76.04c-.03-.17-.09-.31-.17-.42-.08-.11-.2-.2-.34-.25-.14-.06-.32-.08-.52-.08-.18,0-.34.02-.47.06s-.23.11-.3.19c-.07.09-.1.19-.1.32s.03.23.1.31.16.14.29.19c.12.05.29.09.49.13l.42.08c.31.06.58.14.79.24.22.1.39.23.51.4.13.17.19.39.19.65,0,.28-.07.53-.22.74s-.35.37-.62.48c-.25.11-.57.17-.95.17Z"/>
  <path d="M28.27,2.27v-.6l1.09.04,1.38-.04v.6l-1.38-.04-1.09.04ZM29.94,6.04c-.23,0-.41-.03-.55-.1-.14-.07-.25-.17-.31-.32-.07-.14-.1-.33-.1-.55V.33h.77v4.64c0,.11.01.19.04.25s.07.1.13.13.14.04.25.04h.57v.65h-.8Z"/>
  <path d="M35,6.14c-.42,0-.79-.1-1.1-.29s-.55-.47-.71-.81c-.16-.35-.25-.75-.25-1.2s.08-.84.24-1.18c.16-.34.4-.61.7-.8.31-.19.67-.29,1.09-.29s.76.09,1.05.26c.3.18.53.43.69.76s.24.72.24,1.17v.28h-3.38v-.56h3l-.32.37c0-.35-.05-.65-.15-.9s-.24-.43-.43-.56-.42-.19-.69-.19c-.25,0-.48.06-.67.17s-.34.28-.45.51c-.11.22-.16.5-.16.82v.26c0,.34.05.62.16.85.11.23.26.4.45.52.2.11.43.17.7.17.2,0,.37-.03.53-.09.15-.06.28-.15.39-.27.11-.12.19-.26.26-.44l.71.08c-.09.29-.23.53-.41.73s-.4.36-.65.46c-.25.12-.53.17-.84.17Z"/>
  <path d="M39.61,6.04V1.67h.72v.85h.05v3.53h-.77ZM42.33,3.05c0-.17-.03-.32-.1-.44-.06-.12-.16-.21-.28-.28-.12-.06-.27-.1-.44-.1-.2,0-.38.05-.55.13-.17.09-.31.24-.42.44-.11.21-.16.48-.16.81h-.26v-1.19h.13c.1-.19.21-.35.35-.48s.3-.23.49-.3.39-.1.62-.1c.3,0,.55.06.76.17.21.12.37.29.47.52.11.23.16.51.16.85v2.94h-.77v-2.97ZM45.05,3.05c0-.17-.03-.32-.1-.44-.06-.12-.16-.21-.28-.28-.12-.06-.27-.1-.44-.1-.2,0-.38.04-.55.12-.17.08-.31.22-.42.42-.11.2-.16.47-.16.8h-.26v-1.19h.1c.1-.18.21-.34.36-.46.14-.12.31-.22.5-.28.19-.06.4-.09.63-.09.3,0,.55.05.76.16.21.11.36.27.47.49.11.22.16.5.16.83v3h-.77v-2.98Z"/>
  <path d="M48.72.84v-.84h.77v.84h-.77ZM48.72,6.04V1.67h.77v4.37h-.77Z"/>
  <path d="M52.39,6.04V.01h.77v6.03h-.77Z"/>
  <path d="M57.27,6.15c-.29,0-.55-.05-.77-.15-.22-.1-.39-.25-.51-.44s-.18-.42-.18-.68.05-.46.15-.65c.1-.19.26-.34.48-.46s.5-.21.84-.25l1.11-.14c.07-.01.13-.03.18-.05.05-.03.08-.06.1-.11.02-.05.03-.1.03-.17l.31.45c0,.08-.01.15-.03.21s-.05.1-.1.13c-.04.03-.1.05-.17.07l-1.3.19c-.2.03-.36.08-.48.15s-.21.15-.27.25-.09.22-.09.35c0,.15.03.27.1.38.07.11.16.19.29.24.12.06.27.08.44.08.23,0,.44-.05.64-.14.2-.1.36-.22.48-.38.12-.16.18-.33.18-.51h.24v.64c-.07.18-.18.35-.34.51s-.35.27-.58.36c-.21.07-.47.12-.75.12ZM59.59,6.04c-.17,0-.31-.03-.42-.09s-.2-.14-.25-.26c-.06-.11-.08-.25-.08-.42l-.12-.07v-2.35c0-.15-.03-.28-.1-.38-.07-.1-.18-.17-.32-.22s-.33-.07-.55-.07-.39.02-.52.07c-.14.05-.24.13-.32.24s-.12.27-.14.46h-.76c.02-.32.11-.58.25-.8.14-.21.35-.37.61-.47s.58-.16.95-.16.67.05.92.15c.25.1.44.26.58.46.13.21.2.47.2.78v2.14c0,.1.01.17.04.23.02.05.06.09.12.12.05.02.13.04.23.04h.12v.58h-.21c-.1.02-.16.02-.23.02Z"/>
  <path d="M62.39,6.04V1.67h.72v.85h.05v3.53h-.77ZM65.26,3.16c0-.2-.03-.37-.09-.51s-.16-.24-.29-.31-.29-.11-.48-.11c-.22,0-.42.04-.6.13-.19.09-.34.24-.46.44s-.18.47-.18.8h-.26v-1.17h.13c.09-.19.21-.35.36-.48.15-.13.32-.23.52-.3s.41-.1.65-.1c.3,0,.56.06.78.17.22.11.39.28.51.5s.18.48.18.78v3.03h-.77v-2.87h0Z"/>
  <path d="M70.76,6.15c-.41,0-.78-.1-1.09-.29-.32-.19-.56-.47-.73-.82-.17-.35-.26-.75-.26-1.21s.09-.85.27-1.19c.18-.35.43-.61.74-.8.32-.19.67-.29,1.07-.29s.76.09,1.08.28.56.45.74.8.27.75.27,1.2-.09.86-.27,1.21c-.18.35-.42.62-.74.81-.31.2-.67.3-1.08.3ZM70.76,5.5c.28,0,.51-.07.71-.21s.35-.33.45-.58c.1-.25.15-.54.15-.87s-.05-.62-.16-.86c-.1-.24-.26-.43-.45-.57-.2-.13-.43-.2-.71-.2s-.51.07-.7.2c-.2.13-.35.32-.45.56-.1.24-.16.53-.16.86s.05.62.16.87c.1.25.25.44.45.58.2.15.44.22.71.22Z"/>
  <path d="M75.29,6.04v-.86h.95v.86h-.95Z"/>
  <path d="M79.17.84v-.84h.77v.84h-.77ZM79.17,6.04V1.67h.77v4.37h-.77Z"/>
  <path d="M82.57,2.27v-.6l1.09.04,1.38-.04v.6l-1.38-.04-1.09.04ZM84.24,6.04c-.23,0-.41-.03-.55-.1-.14-.07-.25-.17-.31-.32-.07-.14-.1-.33-.1-.55V.33h.77v4.64c0,.11.01.19.04.25.03.06.07.1.13.13s.14.04.25.04h.57v.65h-.8Z"/>
  <path d="M5.47,17.41c-.15.05-.31.1-.47.13-.16.04-.33.06-.51.08-.18.02-.38.03-.58.03-.79,0-1.48-.15-2.07-.46-.59-.3-1.04-.74-1.35-1.31C.17,15.31,0,14.63,0,13.85s.16-1.44.48-2.02.77-1.03,1.36-1.34c.59-.32,1.28-.47,2.06-.47s1.44.15,2.01.45c.56.3.99.71,1.29,1.22.3.51.44,1.09.44,1.72,0,.45-.07.85-.22,1.21-.14.36-.35.65-.61.86-.27.21-.57.31-.92.31-.22,0-.42-.04-.57-.12-.16-.08-.28-.2-.37-.37s-.14-.38-.16-.63v-.1h.08v-1.69h-.08l.07-.82h.62v2.69c0,.09.02.18.05.25s.09.13.16.17.15.06.26.06c.18,0,.36-.06.51-.19.16-.12.29-.32.38-.57.1-.26.15-.58.15-.96,0-.55-.12-1.03-.37-1.46-.24-.43-.6-.76-1.07-1.01-.47-.24-1.02-.36-1.67-.36s-1.22.13-1.68.38c-.47.26-.82.62-1.07,1.1-.24.48-.36,1.04-.36,1.7s.12,1.23.36,1.7c.24.47.6.83,1.06,1.08.47.25,1.03.37,1.69.37.29,0,.57-.02.84-.07.26-.05.52-.12.76-.21v.68h-.02ZM3.68,15.8c-.33,0-.62-.08-.86-.24s-.43-.39-.55-.68c-.13-.29-.19-.63-.19-1.02s.07-.73.2-1.02c.13-.29.32-.51.56-.66.24-.15.52-.23.84-.23.2,0,.38.03.55.1s.32.17.45.3.23.3.31.49v2.05c-.07.19-.18.36-.31.49s-.28.24-.45.3c-.17.08-.36.12-.55.12ZM3.77,15.26c.22,0,.41-.06.57-.19.15-.12.27-.29.35-.51s.12-.46.13-.73c-.01-.27-.05-.5-.14-.7-.09-.2-.21-.36-.36-.47s-.34-.17-.55-.17-.4.05-.54.16c-.15.11-.26.26-.33.47-.08.2-.11.44-.11.73s.04.52.11.74c.07.21.19.37.33.49.15.12.33.18.54.18Z"/>
  <path d="M11.99,16.32c-.41,0-.76-.09-1.06-.26s-.53-.43-.7-.77c-.16-.34-.25-.75-.25-1.23s.08-.9.25-1.25.4-.62.71-.8.67-.28,1.09-.28c.33,0,.63.06.88.18.26.12.47.29.63.52.16.23.27.51.32.84h-.72c-.04-.2-.11-.36-.2-.5-.1-.13-.22-.23-.37-.3s-.32-.1-.53-.1c-.29,0-.53.06-.72.19s-.33.32-.43.56c-.09.24-.14.54-.14.89s.05.64.15.89.24.43.43.56.42.19.69.19c.21,0,.39-.04.54-.12s.27-.19.37-.33c.09-.15.16-.32.2-.53h.72c-.05.34-.15.64-.31.88s-.37.43-.63.56c-.24.14-.56.21-.92.21Z"/>
  <path d="M17.64,16.31c-.42,0-.79-.1-1.1-.29s-.55-.47-.71-.81c-.16-.35-.25-.75-.25-1.2s.08-.84.24-1.18c.16-.34.4-.61.7-.8.31-.19.67-.29,1.09-.29s.76.09,1.05.26c.3.18.53.43.69.76s.24.72.24,1.17v.28h-3.38v-.56h3l-.32.37c0-.35-.05-.65-.15-.9s-.24-.43-.43-.56-.42-.19-.69-.19c-.25,0-.48.06-.67.17s-.34.28-.45.51c-.11.22-.16.5-.16.82v.26c0,.34.05.62.16.85.11.23.26.4.45.52.2.11.43.17.7.17.2,0,.37-.03.53-.09.15-.06.28-.15.39-.27.11-.12.19-.26.26-.44l.71.08c-.09.29-.23.53-.41.73-.18.2-.4.36-.65.46-.25.12-.53.17-.84.17Z"/>
  <path d="M21.61,16.21v-6.03h.77v6.03h-.77Z"/>
  <path d="M26.45,16.31c-.42,0-.79-.1-1.1-.29s-.55-.47-.71-.81c-.16-.35-.25-.75-.25-1.2s.08-.84.24-1.18c.16-.34.4-.61.7-.8.31-.19.67-.29,1.09-.29s.76.09,1.05.26c.3.18.53.43.69.76s.24.72.24,1.17v.28h-3.38v-.56h3l-.32.37c0-.35-.05-.65-.15-.9s-.24-.43-.43-.56-.42-.19-.69-.19c-.25,0-.48.06-.67.17s-.34.28-.45.51c-.11.22-.16.5-.16.82v.26c0,.34.05.62.16.85.11.23.26.4.45.52.2.11.43.17.7.17.2,0,.37-.03.53-.09.15-.06.28-.15.39-.27.11-.12.19-.26.26-.44l.71.08c-.09.29-.23.53-.41.73-.18.2-.4.36-.65.46-.25.12-.53.17-.84.17Z"/>
  <path d="M31.89,16.32c-.36,0-.67-.05-.93-.16s-.46-.27-.6-.48c-.15-.22-.24-.49-.27-.81l.73-.03c.03.2.08.37.17.49.09.13.21.22.36.28.15.06.34.09.57.09s.42-.03.58-.08c.16-.06.27-.13.35-.24.08-.1.11-.22.11-.37,0-.13-.03-.24-.1-.33-.06-.09-.17-.16-.31-.22s-.34-.11-.59-.16l-.44-.08c-.29-.06-.54-.14-.73-.24-.2-.1-.35-.23-.45-.4-.1-.16-.15-.36-.15-.59,0-.26.06-.48.18-.67s.3-.34.55-.44c.24-.1.54-.15.88-.15s.61.05.86.15c.25.1.45.25.6.44.15.2.25.45.29.75l-.76.04c-.03-.17-.09-.31-.17-.42-.08-.11-.2-.2-.34-.25-.14-.06-.32-.08-.52-.08-.18,0-.34.02-.47.06s-.23.11-.3.19c-.07.09-.1.19-.1.32s.03.23.1.31.16.14.29.19c.12.05.29.09.49.13l.42.08c.31.06.58.14.79.24s.39.23.51.4c.13.17.19.39.19.65,0,.28-.07.53-.22.74s-.35.37-.62.48c-.25.11-.57.17-.95.17Z"/>
  <path d="M35.08,12.44v-.6l1.09.04,1.38-.04v.6l-1.38-.04-1.09.04ZM36.75,16.21c-.23,0-.41-.03-.55-.1-.14-.07-.25-.17-.31-.32-.07-.14-.1-.33-.1-.55v-4.74h.77v4.64c0,.11.01.19.04.25s.07.1.13.13.14.04.25.04h.57v.65h-.8Z"/>
  <path d="M41.18,16.31c-.42,0-.79-.1-1.1-.29s-.55-.47-.71-.81c-.16-.35-.25-.75-.25-1.2s.08-.84.24-1.18c.16-.34.4-.61.7-.8.31-.19.67-.29,1.09-.29s.76.09,1.05.26c.3.18.53.43.69.76s.24.72.24,1.17v.28h-3.38v-.56h3l-.32.37c0-.35-.05-.65-.15-.9s-.24-.43-.43-.56-.42-.19-.69-.19c-.25,0-.48.06-.67.17s-.34.28-.45.51c-.11.22-.16.5-.16.82v.26c0,.34.05.62.16.85.11.23.26.4.45.52.2.11.43.17.7.17.2,0,.37-.03.53-.09.15-.06.28-.15.39-.27.11-.12.19-.26.26-.44l.71.08c-.09.29-.23.53-.41.73-.18.2-.4.36-.65.46-.25.12-.53.17-.84.17Z"/>
  <path d="M44.48,17.93v-.67h3.78v.67h-3.78Z"/>
  <path d="M49.85,16.21v-4.37h.72v.85h.05v3.53h-.77ZM52.57,13.22c0-.17-.03-.32-.1-.44-.06-.12-.16-.21-.28-.28-.12-.07-.27-.1-.44-.1-.2,0-.38.05-.55.13-.17.09-.31.24-.42.44-.11.21-.16.48-.16.81h-.26v-1.19h.13c.1-.19.21-.35.35-.48.14-.13.3-.23.49-.3s.39-.1.62-.1c.3,0,.55.06.76.17.21.12.37.29.47.52.11.23.16.51.16.85v2.94h-.77v-2.97h0ZM55.29,13.22c0-.17-.03-.32-.1-.44-.06-.12-.16-.21-.28-.28-.12-.07-.27-.1-.44-.1-.2,0-.38.04-.55.12s-.31.22-.42.42-.16.47-.16.8h-.26v-1.19h.1c.1-.18.21-.34.36-.46.14-.12.31-.22.5-.28.19-.06.4-.09.63-.09.3,0,.55.05.76.16s.36.27.47.49.16.5.16.83v3h-.77v-2.98h0Z"/>
  <path d="M58.33,11.01v-.84h.77v.84h-.77ZM58.33,16.21v-4.37h.77v4.37h-.77Z"/>
  <path d="M61.36,16.21v-6.03h.77v6.03h-.77Z"/>
  <path d="M65.61,16.32c-.29,0-.55-.05-.77-.15-.22-.1-.39-.25-.51-.44s-.18-.42-.18-.68.05-.46.15-.65c.1-.19.26-.34.48-.46s.5-.21.84-.25l1.11-.14c.07-.01.13-.03.18-.05.05-.03.08-.06.1-.11.02-.05.03-.1.03-.17l.31.45c0,.08-.01.15-.03.21s-.05.1-.1.13c-.04.03-.1.05-.17.07l-1.3.19c-.2.03-.36.08-.48.15s-.21.15-.27.25-.09.22-.09.35c0,.15.03.27.1.38.07.11.16.19.29.24.12.06.27.08.44.08.23,0,.44-.05.64-.14s.36-.22.48-.38c.12-.16.18-.33.18-.51h.24v.64c-.07.18-.18.35-.34.51s-.35.27-.58.36c-.21.07-.47.12-.75.12ZM67.93,16.21c-.17,0-.31-.03-.42-.09s-.2-.14-.25-.26c-.06-.11-.08-.25-.08-.42l-.12-.07v-2.35c0-.15-.03-.28-.1-.38-.07-.1-.18-.17-.32-.22s-.33-.07-.55-.07-.39.02-.52.07c-.14.05-.24.13-.32.24s-.12.27-.14.46h-.76c.02-.32.11-.58.25-.8.14-.21.35-.37.61-.47s.58-.16.95-.16.67.05.92.15.44.26.58.46c.13.21.2.47.2.78v2.14c0,.1.01.17.04.23.02.05.06.09.12.12.05.02.13.04.23.04h.12v.58h-.21c-.09.02-.16.02-.23.02Z"/>
  <path d="M70.1,16.21v-4.37h.72v.85h.05v3.53h-.77ZM72.97,13.33c0-.2-.03-.37-.09-.51s-.16-.24-.29-.31-.29-.11-.48-.11c-.22,0-.42.04-.6.13-.19.09-.34.24-.46.44s-.18.47-.18.8h-.26v-1.17h.13c.09-.19.21-.35.36-.48.15-.13.32-.23.52-.3s.41-.1.65-.1c.3,0,.56.06.78.17.22.11.39.28.51.5s.18.48.18.78v3.03h-.77v-2.87h0Z"/>
  <path d="M77.83,16.32c-.41,0-.78-.1-1.09-.29-.32-.19-.56-.47-.73-.82-.17-.35-.26-.75-.26-1.21s.09-.85.27-1.19c.18-.35.43-.61.74-.8.32-.19.67-.29,1.07-.29s.76.09,1.08.28.56.45.74.8.27.75.27,1.2-.09.86-.27,1.21c-.18.35-.42.62-.74.81-.31.2-.67.3-1.08.3ZM77.83,15.66c.28,0,.51-.07.71-.21s.35-.33.45-.58c.1-.25.15-.54.15-.87s-.05-.62-.16-.86c-.1-.24-.26-.43-.45-.57-.2-.13-.43-.2-.71-.2s-.51.07-.7.2c-.2.13-.35.32-.45.56-.1.24-.16.53-.16.86s.05.62.16.87c.1.25.25.44.45.58.21.15.44.22.71.22Z"/>
  <path d="M81.26,17.93v-.67h3.78v.67h-3.78Z"/>
  <path d="M0,23.71v-.68h4.61v.68H0ZM1.97,25.69v-4.65h.67v4.65h-.67Z"/>
  <path d="M13.02,26.49c-.45,0-.84-.08-1.17-.24-.33-.16-.59-.39-.78-.7-.18-.3-.28-.67-.3-1.09h.78c.01.29.08.54.2.74.12.2.28.35.5.44.22.1.48.15.79.15s.58-.05.79-.15c.21-.1.37-.23.47-.41s.16-.38.16-.62c0-.22-.05-.41-.14-.57-.09-.16-.23-.28-.42-.37-.19-.09-.42-.13-.7-.13h-.64v-.69h.43c.25,0,.46-.04.63-.11s.3-.18.38-.32c.08-.14.12-.31.12-.51,0-.21-.05-.39-.14-.53-.09-.14-.22-.25-.4-.32-.17-.07-.39-.11-.64-.11s-.48.04-.65.12-.3.21-.38.38c-.09.17-.14.4-.15.68h-.78c.02-.4.1-.75.27-1.03.16-.28.39-.5.68-.64.29-.15.64-.22,1.05-.22.38,0,.72.07,1.02.2.29.13.52.32.68.56s.24.52.24.84c0,.2-.04.39-.11.56-.07.17-.18.32-.34.45-.15.13-.35.24-.6.32v-.07c.31.05.56.14.77.27.2.13.36.3.46.51s.15.44.15.72c0,.37-.09.7-.28.98-.19.28-.45.5-.78.66-.34.18-.73.25-1.17.25Z"/>
  <path d="M18.36,20.22c.22,0,.41.03.6.08.18.05.35.13.5.23s.29.23.4.38c.13.17.24.37.33.6s.15.48.19.77c.04.28.06.6.06.94,0,.68-.08,1.27-.25,1.76-.16.49-.41.87-.73,1.13s-.72.39-1.19.39c-.33,0-.63-.06-.9-.19-.26-.13-.47-.31-.63-.55s-.24-.52-.26-.84h.74c.02.19.08.36.18.49.09.14.21.25.37.32.15.07.33.11.52.11.31,0,.57-.09.78-.28s.36-.47.47-.86c.1-.38.15-.86.15-1.44v-.2s-.01-.11-.01-.16h.24v.14c-.09.26-.22.48-.38.66s-.36.32-.58.42c-.22.09-.47.14-.75.14-.37,0-.7-.08-.99-.25-.28-.16-.5-.4-.66-.69-.16-.3-.23-.64-.23-1.03,0-.41.08-.78.25-1.09s.4-.56.71-.73c.31-.16.66-.25,1.07-.25ZM18.34,20.87c-.25,0-.46.06-.64.17-.19.11-.33.27-.43.48-.1.21-.15.45-.15.73s.05.52.15.72c.1.2.24.36.42.47.18.11.4.16.65.16s.46-.06.65-.17.34-.27.44-.47c.11-.2.16-.43.16-.7,0-.14-.01-.28-.04-.41-.03-.13-.06-.24-.12-.35s-.11-.2-.19-.28c-.07-.08-.16-.15-.25-.2-.09-.06-.19-.1-.3-.13-.11,0-.23-.02-.35-.02Z"/>
  <path d="M28.97,26.49c-.45,0-.84-.08-1.17-.24-.33-.16-.59-.39-.78-.7-.18-.3-.28-.67-.3-1.09h.78c.01.29.08.54.2.74.12.2.28.35.5.44.22.1.48.15.79.15s.58-.05.79-.15c.21-.1.37-.23.47-.41s.16-.38.16-.62c0-.22-.05-.41-.14-.57-.09-.16-.23-.28-.42-.37-.19-.09-.42-.13-.7-.13h-.64v-.69h.43c.25,0,.46-.04.63-.11s.3-.18.38-.32c.08-.14.12-.31.12-.51,0-.21-.05-.39-.14-.53-.09-.14-.22-.25-.4-.32-.17-.07-.39-.11-.64-.11s-.48.04-.65.12-.3.21-.38.38c-.09.17-.14.4-.15.68h-.78c.02-.4.1-.75.27-1.03.16-.28.39-.5.68-.64.29-.15.64-.22,1.05-.22.38,0,.72.07,1.02.2.29.13.52.32.68.56s.24.52.24.84c0,.2-.04.39-.11.56-.07.17-.18.32-.34.45s-.35.24-.6.32v-.07c.31.05.56.14.77.27.2.13.36.3.46.51s.15.44.15.72c0,.37-.09.7-.28.98-.19.28-.45.5-.78.66-.34.18-.73.25-1.17.25Z"/>
  <path d="M34.34,26.49c-.45,0-.84-.08-1.17-.24-.33-.16-.59-.39-.78-.7-.18-.3-.28-.67-.3-1.09h.78c.01.29.08.54.2.74.12.2.28.35.5.44.22.1.48.15.79.15s.58-.05.79-.15c.21-.1.37-.23.47-.41s.16-.38.16-.62c0-.22-.05-.41-.14-.57-.09-.16-.23-.28-.42-.37-.19-.09-.42-.13-.7-.13h-.64v-.69h.43c.25,0,.46-.04.63-.11s.3-.18.38-.32c.08-.14.12-.31.12-.51,0-.21-.05-.39-.14-.53-.09-.14-.22-.25-.4-.32-.17-.07-.39-.11-.64-.11s-.48.04-.65.12-.3.21-.38.38c-.09.17-.14.4-.15.68h-.78c.02-.4.1-.75.27-1.03.16-.28.39-.5.68-.64.29-.15.64-.22,1.05-.22.38,0,.72.07,1.02.2.29.13.52.32.68.56s.24.52.24.84c0,.2-.04.39-.11.56-.07.17-.18.32-.34.45-.15.13-.35.24-.6.32v-.07c.31.05.56.14.77.27.2.13.36.3.46.51s.15.44.15.72c0,.37-.09.7-.28.98-.19.28-.45.5-.78.66-.33.18-.72.25-1.17.25Z"/>
  <path d="M39.71,26.51c-.43,0-.81-.07-1.15-.21s-.61-.35-.81-.63-.3-.61-.3-.99c0-.26.05-.5.14-.71.1-.21.23-.38.41-.53.18-.14.38-.25.62-.32h0c-.19-.07-.34-.18-.48-.31-.13-.13-.23-.28-.3-.46-.07-.17-.1-.36-.1-.57,0-.32.08-.59.25-.82.16-.23.4-.41.69-.53.3-.12.64-.19,1.03-.19s.74.06,1.03.19c.3.12.53.3.69.53.16.23.25.51.25.82,0,.21-.04.4-.11.57-.07.18-.17.33-.3.46-.13.13-.29.24-.47.32h0c.24.06.45.17.62.31.18.14.31.32.41.53s.14.45.14.71c0,.39-.1.72-.3.99-.2.28-.47.48-.81.63-.34.14-.72.21-1.15.21ZM39.71,25.86c.3,0,.56-.05.78-.15.22-.1.39-.24.51-.42s.18-.39.18-.64-.06-.45-.18-.63-.29-.31-.51-.41c-.22-.09-.48-.14-.78-.14s-.56.05-.78.14-.39.23-.51.41-.18.39-.18.63.06.46.18.64.29.32.51.42c.22.1.48.15.78.15ZM39.71,22.82c.26,0,.48-.04.67-.12s.33-.19.42-.34c.1-.15.14-.33.14-.54s-.05-.38-.14-.52c-.1-.14-.24-.24-.42-.31-.18-.07-.41-.11-.67-.11s-.49.04-.67.11c-.18.07-.32.17-.42.31s-.14.31-.14.52.05.39.15.54c.1.15.24.26.42.34.18.09.4.12.66.12Z"/>
  <path d="M50.28,26.51c-.43,0-.81-.07-1.15-.21s-.61-.35-.81-.63-.3-.61-.3-.99c0-.26.05-.5.14-.71.1-.21.23-.38.41-.53.18-.14.38-.25.62-.32h0c-.19-.07-.34-.18-.48-.31-.13-.13-.23-.28-.3-.46-.07-.17-.1-.36-.1-.57,0-.32.08-.59.25-.82.16-.23.4-.41.69-.53.3-.12.64-.19,1.03-.19s.74.06,1.03.19c.3.12.53.3.69.53.16.23.25.51.25.82,0,.21-.04.4-.11.57-.07.18-.17.33-.3.46s-.29.24-.47.32h0c.24.06.45.17.62.31.18.14.31.32.41.53s.14.45.14.71c0,.39-.1.72-.3.99-.2.28-.47.48-.81.63-.33.14-.72.21-1.15.21ZM50.28,25.86c.3,0,.56-.05.78-.15.22-.1.39-.24.51-.42s.18-.39.18-.64-.06-.45-.18-.63-.29-.31-.51-.41c-.22-.09-.48-.14-.78-.14s-.56.05-.78.14-.39.23-.51.41-.18.39-.18.63.06.46.18.64.29.32.51.42c.22.1.48.15.78.15ZM50.28,22.82c.26,0,.48-.04.67-.12.19-.08.33-.19.42-.34.1-.15.14-.33.14-.54s-.05-.38-.14-.52c-.1-.14-.24-.24-.42-.31s-.41-.11-.67-.11-.49.04-.67.11c-.18.07-.32.17-.42.31s-.14.31-.14.52.05.39.15.54c.1.15.24.26.42.34.18.09.41.12.66.12Z"/>
  <path d="M55.63,20.22c.22,0,.41.03.6.08.18.05.35.13.5.23s.29.23.4.38c.13.17.24.37.33.6s.15.48.19.77c.04.28.06.6.06.94,0,.68-.08,1.27-.25,1.76-.16.49-.41.87-.73,1.13s-.72.39-1.19.39c-.33,0-.63-.06-.9-.19-.26-.13-.47-.31-.63-.55-.16-.24-.24-.52-.26-.84h.74c.02.19.08.36.18.49.09.14.21.25.37.32.15.07.33.11.52.11.31,0,.57-.09.78-.28s.36-.47.47-.86c.1-.38.15-.86.15-1.44v-.2s-.01-.11-.01-.16h.24v.14c-.09.26-.22.48-.38.66s-.36.32-.58.42c-.22.09-.47.14-.75.14-.37,0-.7-.08-.99-.25-.28-.16-.5-.4-.66-.69-.16-.3-.23-.64-.23-1.03,0-.41.08-.78.25-1.09s.4-.56.71-.73c.31-.16.67-.25,1.07-.25ZM55.62,20.87c-.25,0-.46.06-.64.17-.19.11-.33.27-.43.48-.1.21-.15.45-.15.73s.05.52.15.72.24.36.42.47.4.16.65.16.46-.06.65-.17.34-.27.44-.47c.11-.2.16-.43.16-.7,0-.14-.01-.28-.04-.41-.03-.13-.06-.24-.12-.35s-.11-.2-.19-.28c-.07-.08-.16-.15-.25-.2-.09-.06-.19-.1-.3-.13-.12,0-.23-.02-.35-.02Z"/>
  <path d="M59.65,26.37c.08-.81.23-1.53.44-2.17.21-.64.48-1.22.83-1.73.35-.52.77-.98,1.28-1.4h-3.64v-.73h4.58v.61c-.54.41-.99.88-1.36,1.4s-.66,1.11-.87,1.77c-.21.66-.36,1.41-.43,2.26h-.83Z"/>
  <path d="M66.24,26.51c-.43,0-.81-.07-1.15-.21s-.61-.35-.81-.63-.3-.61-.3-.99c0-.26.05-.5.14-.71s.23-.38.41-.53c.18-.14.38-.25.62-.32h0c-.19-.07-.34-.18-.48-.31-.13-.13-.23-.28-.3-.46-.07-.17-.1-.36-.1-.57,0-.32.08-.59.25-.82.16-.23.4-.41.69-.53.3-.12.64-.19,1.03-.19s.74.06,1.03.19c.3.12.53.3.69.53.16.23.25.51.25.82,0,.21-.04.4-.11.57-.07.18-.17.33-.3.46s-.29.24-.47.32h0c.24.06.45.17.62.31.18.14.31.32.41.53s.14.45.14.71c0,.39-.1.72-.3.99-.2.28-.47.48-.81.63-.34.14-.73.21-1.15.21ZM66.24,25.86c.3,0,.56-.05.78-.15.22-.1.39-.24.51-.42s.18-.39.18-.64-.06-.45-.18-.63-.29-.31-.51-.41c-.22-.09-.48-.14-.78-.14s-.56.05-.78.14c-.22.09-.39.23-.51.41s-.18.39-.18.63.06.46.18.64.29.32.51.42c.22.1.48.15.78.15ZM66.24,22.82c.26,0,.48-.04.67-.12s.33-.19.42-.34c.1-.15.14-.33.14-.54s-.05-.38-.14-.52c-.1-.14-.24-.24-.42-.31s-.41-.11-.67-.11-.49.04-.67.11-.32.17-.42.31-.14.31-.14.52.05.39.15.54c.1.15.24.26.42.34.18.09.4.12.66.12Z"/>
  <path d="M70.39,26.37c.08-.81.23-1.53.44-2.17.21-.64.48-1.22.83-1.73.35-.52.77-.98,1.28-1.4h-3.64v-.73h4.58v.61c-.54.41-.99.88-1.36,1.4s-.66,1.11-.87,1.77c-.21.66-.36,1.41-.43,2.26h-.83Z"/>
  <path d="M76.99,26.51c-.43,0-.81-.07-1.15-.21s-.61-.35-.81-.63-.3-.61-.3-.99c0-.26.05-.5.14-.71s.23-.38.41-.53c.18-.14.38-.25.62-.32h0c-.19-.07-.34-.18-.48-.31-.13-.13-.23-.28-.3-.46-.07-.17-.1-.36-.1-.57,0-.32.08-.59.25-.82.16-.23.4-.41.69-.53.3-.12.64-.19,1.03-.19s.74.06,1.03.19c.3.12.53.3.69.53.16.23.25.51.25.82,0,.21-.04.4-.11.57-.07.18-.17.33-.3.46s-.29.24-.47.32h0c.24.06.45.17.62.31.18.14.31.32.41.53s.14.45.14.71c0,.39-.1.72-.3.99-.2.28-.47.48-.81.63-.34.14-.73.21-1.15.21ZM76.99,25.86c.3,0,.56-.05.78-.15.22-.1.39-.24.51-.42s.18-.39.18-.64-.06-.45-.18-.63-.29-.31-.51-.41c-.22-.09-.48-.14-.78-.14s-.56.05-.78.14c-.22.09-.39.23-.51.41s-.18.39-.18.63.06.46.18.64.29.32.51.42c.21.1.48.15.78.15ZM76.99,22.82c.26,0,.48-.04.67-.12s.33-.19.42-.34c.1-.15.14-.33.14-.54s-.05-.38-.14-.52c-.1-.14-.24-.24-.42-.31s-.41-.11-.67-.11-.49.04-.67.11-.32.17-.42.31-.14.31-.14.52.05.39.15.54c.1.15.24.26.42.34.18.09.4.12.66.12Z"/>
  <path d="M81.04,26.37c.02-.39.09-.72.2-1.01.11-.29.26-.54.45-.75s.43-.41.72-.59l1.04-.65c.18-.11.32-.22.44-.34.12-.11.21-.25.28-.4s.1-.32.1-.52c0-.23-.05-.44-.14-.61s-.23-.3-.4-.39c-.17-.09-.38-.13-.61-.13-.25,0-.46.05-.63.15-.18.1-.31.25-.4.45s-.14.45-.14.74v.09h-.78v-.13c0-.41.08-.76.25-1.06.16-.3.39-.54.69-.7.3-.16.64-.24,1.04-.24.37,0,.7.07.99.22.29.14.52.35.68.62s.25.59.25.96c0,.25-.04.49-.13.71-.08.22-.21.43-.38.61-.17.19-.38.36-.63.53l-.75.47c-.33.21-.58.39-.75.54-.17.15-.28.29-.35.43-.06.14-.1.32-.1.52l-.34-.22h3.37v.71h-3.97Z"/>
  <path d="M0,36.54v-6.03h.77v2.57h-.08v2.24h-.02v1.23h-.67ZM2.14,36.64c-.27,0-.51-.05-.74-.15-.23-.1-.42-.24-.57-.41s-.25-.37-.3-.58v-2.21c.05-.24.14-.44.3-.63.15-.18.34-.32.58-.42.23-.1.49-.15.77-.15.38,0,.72.09,1.01.27.3.18.52.43.69.76.16.33.25.71.25,1.15s-.08.86-.24,1.22-.39.65-.69.85c-.31.19-.66.3-1.06.3ZM2.07,35.97c.26,0,.49-.07.68-.21s.34-.34.45-.6c.1-.26.15-.56.15-.89s-.05-.61-.15-.83c-.1-.23-.25-.39-.44-.51-.19-.11-.42-.17-.69-.17s-.49.06-.69.18-.36.29-.47.53c-.11.23-.17.52-.17.85s.06.63.17.88c.11.25.27.44.47.58.2.12.43.19.69.19Z"/>
  <path d="M5.26,37.62h.4c.13,0,.24-.02.33-.05.08-.03.16-.09.22-.17.06-.08.12-.2.18-.36l.3-.81.09.75-1.94-4.8h.84l.97,2.62c.07.19.14.4.22.64.07.23.13.43.18.6h-.22c.04-.16.1-.36.18-.59.07-.23.15-.45.22-.65l.92-2.62h.8l-2.01,5.23c-.09.22-.18.4-.29.52-.11.13-.23.22-.37.27-.14.05-.32.08-.53.08h-.48v-.66h0Z"/>
  <path d="M15.43,36.65c-.29,0-.55-.05-.77-.15-.22-.1-.39-.25-.51-.44s-.18-.42-.18-.68.05-.46.15-.65.26-.34.48-.46.5-.21.84-.25l1.11-.14c.07-.01.13-.03.18-.05.05-.03.08-.06.1-.11.02-.05.03-.1.03-.17l.31.45c0,.08-.01.15-.03.21s-.05.1-.1.13c-.04.03-.1.05-.17.07l-1.3.19c-.2.03-.36.08-.48.15-.12.07-.21.15-.27.25s-.09.22-.09.35c0,.15.03.27.1.38s.16.19.29.24c.12.06.27.08.44.08.23,0,.44-.05.64-.14.2-.1.36-.22.48-.38.12-.16.18-.33.18-.51h.24v.64c-.07.18-.18.35-.34.51-.16.15-.35.27-.58.36-.22.08-.47.12-.75.12ZM17.75,36.54c-.17,0-.31-.03-.42-.09-.11-.06-.2-.14-.25-.26s-.08-.25-.08-.42l-.12-.07v-2.35c0-.15-.03-.28-.1-.38s-.18-.17-.32-.22-.33-.07-.55-.07-.39.02-.52.07c-.14.05-.24.13-.32.24-.08.11-.12.27-.14.46h-.76c.02-.32.11-.58.25-.8.14-.21.35-.37.61-.47.26-.1.58-.16.95-.16s.67.05.92.15c.25.1.44.26.58.46.13.21.2.47.2.78v2.14c0,.1.01.17.04.23.02.05.06.09.12.12s.13.04.23.04h.12v.58h-.21c-.07,0-.17.02-.23.02Z"/>
  <path d="M19,38.27v-6.1h.67v1.23h.02v2.24h.08v2.64h-.77ZM21.14,36.64c-.27,0-.51-.05-.74-.15-.23-.1-.42-.24-.57-.41s-.25-.37-.3-.58v-2.21c.05-.24.14-.44.3-.63.15-.18.34-.32.58-.42.23-.1.49-.15.77-.15.38,0,.72.09,1.01.27.3.18.52.43.69.76.16.33.25.71.25,1.15s-.08.86-.24,1.22-.39.65-.69.85c-.31.19-.66.3-1.06.3ZM21.06,35.97c.26,0,.49-.07.68-.21s.34-.34.45-.6c.1-.26.15-.56.15-.89s-.05-.61-.15-.83c-.1-.23-.25-.39-.44-.51-.19-.11-.42-.17-.69-.17s-.49.06-.69.18-.36.29-.47.53c-.11.23-.17.52-.17.85s.06.63.17.88c.11.25.27.44.47.58.2.12.43.19.69.19Z"/>
  <path d="M24.21,38.27v-6.1h.67v1.23h.02v2.24h.08v2.64h-.77ZM26.35,36.64c-.27,0-.51-.05-.74-.15-.23-.1-.42-.24-.57-.41s-.25-.37-.3-.58v-2.21c.05-.24.14-.44.3-.63.15-.18.34-.32.58-.42.23-.1.49-.15.77-.15.38,0,.72.09,1.01.27.3.18.52.43.69.76.16.33.25.71.25,1.15s-.08.86-.24,1.22-.39.65-.69.85c-.31.19-.66.3-1.06.3ZM26.28,35.97c.26,0,.49-.07.68-.21s.34-.34.45-.6c.1-.26.15-.56.15-.89s-.05-.61-.15-.83c-.1-.23-.25-.39-.44-.51-.19-.11-.42-.17-.69-.17s-.49.06-.69.18-.36.29-.47.53-.17.52-.17.85.06.63.17.88c.11.25.27.44.47.58.2.12.43.19.69.19Z"/>
  <path d="M31.26,36.65c-.41,0-.78-.1-1.09-.29-.32-.19-.56-.47-.73-.82-.17-.35-.26-.75-.26-1.21s.09-.85.27-1.19c.18-.35.43-.61.74-.8.32-.19.67-.29,1.07-.29s.76.09,1.08.28c.32.19.56.45.74.8s.27.75.27,1.2-.09.86-.27,1.21c-.18.35-.42.62-.74.81-.32.21-.68.3-1.08.3ZM31.26,36c.28,0,.51-.07.71-.21.2-.14.35-.33.45-.58s.15-.54.15-.87-.05-.62-.16-.86c-.1-.24-.26-.43-.45-.57-.2-.13-.43-.2-.71-.2s-.51.07-.7.2c-.2.13-.35.32-.45.56s-.16.53-.16.86.05.62.16.87c.1.25.25.44.45.58.2.15.43.22.71.22Z"/>
  <path d="M34.44,31.35v-.84h.77v.84h-.77ZM34.44,36.54v-4.37h.77v4.37h-.77Z"/>
  <path d="M36.55,36.54v-4.37h.72v.85h.05v3.53h-.77ZM39.42,33.66c0-.2-.03-.37-.09-.51s-.16-.24-.29-.31-.29-.11-.48-.11c-.22,0-.42.04-.6.13-.19.09-.34.24-.46.44s-.18.47-.18.8h-.26v-1.17h.13c.09-.19.21-.35.36-.48s.32-.23.52-.3c.2-.07.41-.1.65-.1.3,0,.56.06.78.17s.39.28.51.5.18.48.18.78v3.03h-.77v-2.87h0Z"/>
  <path d="M41.04,32.77v-.6l1.09.04,1.38-.04v.6l-1.38-.04-1.09.04ZM42.71,36.54c-.23,0-.41-.03-.55-.1-.14-.07-.25-.17-.31-.32-.07-.14-.1-.33-.1-.55v-4.74h.77v4.64c0,.11.01.19.04.25s.07.1.13.13.14.04.25.04h.57v.65h-.8Z"/>
  <path d="M44.41,36.54v-4.37h.72v.85h.05v3.53h-.77ZM47.13,33.55c0-.17-.03-.32-.1-.44-.06-.12-.16-.21-.28-.28-.12-.06-.27-.1-.44-.1-.2,0-.38.05-.55.13-.17.09-.31.24-.42.44-.11.21-.16.48-.16.81h-.26v-1.19h.13c.1-.19.21-.35.35-.48s.3-.23.49-.3.39-.1.62-.1c.3,0,.55.06.76.17.21.12.37.29.47.52.11.23.16.51.16.85v2.94h-.77v-2.97ZM49.85,33.55c0-.17-.03-.32-.1-.44-.06-.12-.16-.21-.28-.28-.12-.06-.27-.1-.44-.1-.2,0-.38.04-.55.12-.17.08-.31.22-.42.42-.11.2-.16.47-.16.8h-.26v-1.19h.1c.1-.18.21-.34.36-.46.14-.12.31-.22.5-.28.19-.06.4-.09.63-.09.3,0,.55.05.76.16.21.11.36.27.47.49.11.22.16.5.16.83v3h-.77v-2.98Z"/>
  <path d="M53.77,36.64c-.42,0-.79-.1-1.1-.29s-.55-.47-.71-.81c-.16-.35-.25-.75-.25-1.2s.08-.84.24-1.18c.16-.34.4-.61.7-.8.31-.19.67-.29,1.09-.29s.76.09,1.05.26c.3.18.53.43.69.76s.24.72.24,1.17v.28h-3.38v-.56h3l-.32.37c0-.35-.05-.65-.15-.9-.1-.25-.24-.43-.43-.56s-.42-.19-.69-.19c-.25,0-.48.06-.67.17s-.34.28-.45.51c-.11.22-.16.5-.16.82v.26c0,.34.05.62.16.85s.26.4.45.52c.2.11.43.17.7.17.2,0,.37-.03.53-.09.15-.06.28-.15.39-.27s.19-.26.26-.44l.71.08c-.09.29-.23.53-.41.73s-.4.36-.65.46c-.25.12-.53.17-.84.17Z"/>
  <path d="M56.83,36.54v-4.37h.72v.85h.05v3.53h-.77ZM59.7,33.66c0-.2-.03-.37-.09-.51s-.16-.24-.29-.31-.29-.11-.48-.11c-.22,0-.42.04-.6.13-.19.09-.34.24-.46.44s-.18.47-.18.8h-.26v-1.17h.13c.09-.19.21-.35.36-.48.15-.13.32-.23.52-.3s.41-.1.65-.1c.3,0,.56.06.78.17.22.11.39.28.51.5s.18.48.18.78v3.03h-.77v-2.87h0Z"/>
  <path d="M61.31,32.77v-.6l1.09.04,1.38-.04v.6l-1.38-.04-1.09.04ZM62.98,36.54c-.23,0-.41-.03-.55-.1-.14-.07-.25-.17-.31-.32-.07-.14-.1-.33-.1-.55v-4.74h.77v4.64c0,.11.01.19.04.25.03.06.07.1.13.13s.14.04.25.04h.57v.65h-.8Z"/>
  <path d="M70.9,36.65c-.41,0-.78-.1-1.09-.29-.32-.19-.56-.47-.73-.82-.17-.35-.26-.75-.26-1.21s.09-.85.27-1.19c.18-.35.43-.61.74-.8s.67-.29,1.07-.29.76.09,1.08.28.56.45.74.8.27.75.27,1.2-.09.86-.27,1.21c-.18.35-.42.62-.74.81-.31.21-.67.3-1.08.3ZM70.9,36c.28,0,.51-.07.71-.21s.35-.33.45-.58c.1-.25.15-.54.15-.87s-.05-.62-.16-.86c-.1-.24-.26-.43-.45-.57-.2-.13-.43-.2-.71-.2s-.51.07-.7.2c-.2.13-.35.32-.45.56-.1.24-.16.53-.16.86s.05.62.16.87c.1.25.25.44.45.58.21.15.44.22.71.22Z"/>
  <path d="M74.09,36.54v-4.37h.72v.85h.05v3.53h-.77ZM76.96,33.66c0-.2-.03-.37-.09-.51s-.16-.24-.29-.31-.29-.11-.48-.11c-.22,0-.42.04-.6.13-.19.09-.34.24-.46.44s-.18.47-.18.8h-.26v-1.17h.13c.09-.19.21-.35.36-.48.15-.13.32-.23.52-.3s.41-.1.65-.1c.3,0,.56.06.78.17.22.11.39.28.51.5s.18.48.18.78v3.03h-.77v-2.87h0Z"/>
  <path d="M79.07,36.54v-6.03h.77v6.03h-.77Z"/>
  <path d="M81.36,37.62h.4c.13,0,.24-.02.33-.05.08-.03.16-.09.22-.17.06-.08.12-.2.18-.36l.3-.81.09.75-1.94-4.8h.84l.97,2.62c.07.19.14.4.22.64.07.23.13.43.18.6h-.22c.04-.16.1-.36.18-.59.07-.23.15-.45.22-.65l.92-2.62h.8l-2.01,5.23c-.09.22-.18.4-.29.52-.11.13-.23.22-.37.27-.14.05-.32.08-.53.08h-.48v-.66h0Z"/>
</svg>